<?xml version="1.0" standalone="no"?>
<!DOCTYPE svg PUBLIC "-//W3C//DTD SVG 20010904//EN"
 "http://www.w3.org/TR/2001/REC-SVG-20010904/DTD/svg10.dtd">
<svg version="1.0" xmlns="http://www.w3.org/2000/svg"
 width="1564.000000pt" height="1564.000000pt" viewBox="0 0 1564.000000 1564.000000"
 preserveAspectRatio="xMidYMid meet">
<metadata>
Created by potrace 1.14, written by Peter Selinger 2001-2017
</metadata>
<g transform="translate(0.000000,1564.000000) scale(0.100000,-0.100000)"
fill="#000000" stroke="none">
<path d="M7630 15534 c-102 -59 -199 -114 -215 -123 -17 -9 -176 -99 -353
-201 -177 -102 -339 -194 -360 -206 -20 -11 -228 -130 -462 -263 -234 -134
-438 -251 -455 -260 -16 -9 -41 -24 -55 -32 -14 -9 -170 -99 -348 -200 -177
-101 -330 -189 -340 -194 -37 -22 -267 -151 -310 -176 -26 -15 -63 -36 -82
-47 -19 -12 -48 -29 -65 -38 -16 -9 -203 -116 -415 -237 -212 -121 -394 -225
-405 -231 -30 -17 -378 -216 -395 -227 -24 -14 -400 -229 -455 -259 -27 -15
-153 -87 -280 -160 -126 -73 -248 -142 -270 -154 -22 -12 -103 -59 -180 -103
-135 -78 -171 -98 -253 -144 -20 -12 -116 -67 -212 -122 -96 -55 -184 -105
-195 -111 -11 -6 -102 -59 -203 -116 -100 -58 -206 -118 -235 -134 -28 -16
-104 -59 -167 -96 l-115 -66 0 -3814 0 -3815 610 -348 c336 -191 735 -420 888
-508 154 -87 283 -159 288 -159 5 0 9 -4 9 -10 0 -5 4 -10 9 -10 5 0 158 -85
341 -190 183 -104 336 -190 341 -190 5 0 9 -4 9 -10 0 -5 5 -10 10 -10 6 0 40
-18 76 -40 36 -22 67 -40 69 -40 1 0 215 -121 475 -270 260 -148 476 -270 481
-270 5 0 9 -4 9 -10 0 -5 4 -10 9 -10 4 0 126 -67 270 -150 145 -82 267 -150
272 -150 5 0 9 -4 9 -10 0 -5 4 -10 10 -10 5 0 33 -14 62 -31 29 -18 73 -43
98 -57 143 -80 819 -467 840 -480 14 -9 27 -17 30 -17 3 0 37 -19 75 -42 63
-36 622 -357 735 -421 25 -14 245 -139 489 -279 244 -139 447 -253 451 -253 5
0 10 -4 12 -9 9 -23 46 -18 103 14 33 19 85 48 115 65 30 17 71 40 90 51 19
12 334 192 700 401 366 209 672 384 680 389 59 35 683 389 686 389 3 0 17 9
32 19 20 14 851 490 970 556 10 6 199 114 420 240 221 127 421 241 445 254
114 65 2558 1461 2597 1484 25 15 70 40 100 57 30 17 69 39 85 49 l30 18 0
3813 0 3814 -310 179 c-170 98 -321 183 -335 190 -14 6 -44 24 -67 39 -23 15
-44 28 -47 28 -3 0 -43 23 -90 50 -47 28 -89 50 -95 50 -6 0 -11 5 -11 10 0 6
-4 10 -9 10 -5 0 -253 140 -551 310 -298 171 -546 310 -551 310 -5 0 -9 5 -9
10 0 6 -4 10 -9 10 -5 0 -95 50 -201 110 -106 61 -196 110 -201 110 -5 0 -9 5
-9 10 0 6 -4 10 -9 10 -5 0 -158 86 -341 190 -182 105 -336 190 -341 190 -5 0
-9 5 -9 10 0 6 -4 10 -9 10 -5 0 -127 68 -271 150 -143 83 -265 150 -271 150
-5 0 -9 5 -9 10 0 6 -4 10 -10 10 -5 0 -63 32 -129 70 -66 39 -123 70 -126 70
-4 0 -26 14 -50 30 -24 17 -46 30 -49 30 -3 0 -345 193 -481 272 -211 123
-537 308 -541 308 -3 0 -18 8 -32 19 -15 10 -45 29 -67 41 -22 12 -425 242
-895 510 -471 269 -862 491 -870 495 -9 3 -95 -41 -200 -101z"/>
</g>
</svg>
